<?xml version="1.0" encoding="UTF-8" standalone="no"?>
<!DOCTYPE svg PUBLIC "-//W3C//DTD SVG 1.1//EN"
 "http://www.w3.org/Graphics/SVG/1.1/DTD/svg11.dtd">
<!-- Generated by graphviz version 2.43.0 (0)
 -->
<!-- Title: org&#45;roam Pages: 1 -->
<svg width="1360pt" height="476pt"
 viewBox="0.00 0.00 1360.00 476.00" xmlns="http://www.w3.org/2000/svg" xmlns:xlink="http://www.w3.org/1999/xlink">
<g id="graph0" class="graph" transform="scale(1 1) rotate(0) translate(4 472)">
<title>org&#45;roam</title>
<polygon fill="white" stroke="transparent" points="-4,4 -4,-472 1356,-472 1356,4 -4,4"/>
<!-- /home/runner/work/wiki/wiki/org/20201227150300&#45;daniel_p_friedman.org -->
<g id="node1" class="node">
<title>/home/runner/work/wiki/wiki/org/20201227150300&#45;daniel_p_friedman.org</title>
<g id="a_node1"><a xlink:href="org-protocol://roam-file?file=%2Fhome%2Frunner%2Fwork%2Fwiki%2Fwiki%2Forg%2F20201227150300-daniel_p_friedman.org" xlink:title="Daniel P. Friedman">
<polygon fill="#eeeeee" stroke="transparent" points="593.5,-468 441.5,-468 441.5,-432 593.5,-432 593.5,-468"/>
<polyline fill="none" stroke="#c9c9c9" points="441.5,-432 593.5,-432 "/>
<text text-anchor="middle" x="517.5" y="-446.3" font-family="Times,serif" font-size="14.00" fill="#111111">Daniel P. Friedman</text>
</a>
</g>
</g>
<!-- /home/runner/work/wiki/wiki/org/20201227150000&#45;essentials_of_programming_languages.org -->
<g id="node7" class="node">
<title>/home/runner/work/wiki/wiki/org/20201227150000&#45;essentials_of_programming_languages.org</title>
<g id="a_node7"><a xlink:href="org-protocol://roam-file?file=%2Fhome%2Frunner%2Fwork%2Fwiki%2Fwiki%2Forg%2F20201227150000-essentials_of_programming_languages.org" xlink:title="EOPL">
<polygon fill="#eeeeee" stroke="transparent" points="546,-396 489,-396 489,-360 546,-360 546,-396"/>
<polyline fill="none" stroke="#c9c9c9" points="489,-360 546,-360 "/>
<text text-anchor="middle" x="517.5" y="-374.3" font-family="Times,serif" font-size="14.00" fill="#111111">EOPL</text>
</a>
</g>
</g>
<!-- /home/runner/work/wiki/wiki/org/20201227150300&#45;daniel_p_friedman.org&#45;&gt;/home/runner/work/wiki/wiki/org/20201227150000&#45;essentials_of_programming_languages.org -->
<g id="edge10" class="edge">
<title>/home/runner/work/wiki/wiki/org/20201227150300&#45;daniel_p_friedman.org&#45;&gt;/home/runner/work/wiki/wiki/org/20201227150000&#45;essentials_of_programming_languages.org</title>
<path fill="none" stroke="#333333" d="M517.5,-431.7C517.5,-423.98 517.5,-414.71 517.5,-406.11"/>
<polygon fill="#333333" stroke="#333333" points="521,-406.1 517.5,-396.1 514,-406.1 521,-406.1"/>
</g>
<!-- /home/runner/work/wiki/wiki/org/20201227170020&#45;common_intermediate_language.org -->
<g id="node2" class="node">
<title>/home/runner/work/wiki/wiki/org/20201227170020&#45;common_intermediate_language.org</title>
<g id="a_node2"><a xlink:href="org-protocol://roam-file?file=%2Fhome%2Frunner%2Fwork%2Fwiki%2Fwiki%2Forg%2F20201227170020-common_intermediate_language.org" xlink:title="CIL">
<polygon fill="#eeeeee" stroke="transparent" points="1312.5,-36 1258.5,-36 1258.5,0 1312.5,0 1312.5,-36"/>
<polyline fill="none" stroke="#c9c9c9" points="1258.5,0 1312.5,0 "/>
<text text-anchor="middle" x="1285.5" y="-14.3" font-family="Times,serif" font-size="14.00" fill="#111111">CIL</text>
</a>
</g>
</g>
<!-- /home/runner/work/wiki/wiki/org/20201227163827&#45;net.org -->
<g id="node6" class="node">
<title>/home/runner/work/wiki/wiki/org/20201227163827&#45;net.org</title>
<g id="a_node6"><a xlink:href="org-protocol://roam-file?file=%2Fhome%2Frunner%2Fwork%2Fwiki%2Fwiki%2Forg%2F20201227163827-net.org" xlink:title=".NET">
<polygon fill="#eeeeee" stroke="transparent" points="1302.5,-180 1248.5,-180 1248.5,-144 1302.5,-144 1302.5,-180"/>
<polyline fill="none" stroke="#c9c9c9" points="1248.5,-144 1302.5,-144 "/>
<text text-anchor="middle" x="1275.5" y="-158.3" font-family="Times,serif" font-size="14.00" fill="#111111">.NET</text>
</a>
</g>
</g>
<!-- /home/runner/work/wiki/wiki/org/20201227170020&#45;common_intermediate_language.org&#45;&gt;/home/runner/work/wiki/wiki/org/20201227163827&#45;net.org -->
<g id="edge7" class="edge">
<title>/home/runner/work/wiki/wiki/org/20201227170020&#45;common_intermediate_language.org&#45;&gt;/home/runner/work/wiki/wiki/org/20201227163827&#45;net.org</title>
<path fill="none" stroke="#333333" d="M1284.29,-36.19C1282.58,-60.42 1279.45,-104.89 1277.42,-133.68"/>
<polygon fill="#333333" stroke="#333333" points="1273.92,-133.65 1276.71,-143.87 1280.9,-134.14 1273.92,-133.65"/>
</g>
<!-- /home/runner/work/wiki/wiki/org/20201227163941&#45;c.org -->
<g id="node22" class="node">
<title>/home/runner/work/wiki/wiki/org/20201227163941&#45;c.org</title>
<g id="a_node22"><a xlink:href="org-protocol://roam-file?file=%2Fhome%2Frunner%2Fwork%2Fwiki%2Fwiki%2Forg%2F20201227163941-c.org" xlink:title="csharp">
<polygon fill="#eeeeee" stroke="transparent" points="1352,-252 1287,-252 1287,-216 1352,-216 1352,-252"/>
<polyline fill="none" stroke="#c9c9c9" points="1287,-216 1352,-216 "/>
<text text-anchor="middle" x="1319.5" y="-230.3" font-family="Times,serif" font-size="14.00" fill="#111111">csharp</text>
</a>
</g>
</g>
<!-- /home/runner/work/wiki/wiki/org/20201227170020&#45;common_intermediate_language.org&#45;&gt;/home/runner/work/wiki/wiki/org/20201227163941&#45;c.org -->
<g id="edge41" class="edge">
<title>/home/runner/work/wiki/wiki/org/20201227170020&#45;common_intermediate_language.org&#45;&gt;/home/runner/work/wiki/wiki/org/20201227163941&#45;c.org</title>
<path fill="none" stroke="#333333" d="M1289.75,-36.28C1295.52,-60.29 1305.74,-105.19 1311.5,-144 1314.56,-164.59 1316.61,-188.04 1317.87,-205.7"/>
<polygon fill="#333333" stroke="#333333" points="1314.39,-206.13 1318.55,-215.87 1321.37,-205.66 1314.39,-206.13"/>
</g>
<!-- /home/runner/work/wiki/wiki/org/20201227172614&#45;ocaml.org -->
<g id="node3" class="node">
<title>/home/runner/work/wiki/wiki/org/20201227172614&#45;ocaml.org</title>
<g id="a_node3"><a xlink:href="org-protocol://roam-file?file=%2Fhome%2Frunner%2Fwork%2Fwiki%2Fwiki%2Forg%2F20201227172614-ocaml.org" xlink:title="OCaml">
<polygon fill="#eeeeee" stroke="transparent" points="1192,-180 1127,-180 1127,-144 1192,-144 1192,-180"/>
<polyline fill="none" stroke="#c9c9c9" points="1127,-144 1192,-144 "/>
<text text-anchor="middle" x="1159.5" y="-158.3" font-family="Times,serif" font-size="14.00" fill="#111111">OCaml</text>
</a>
</g>
</g>
<!-- /home/runner/work/wiki/wiki/org/20201227164302&#45;f.org -->
<g id="node24" class="node">
<title>/home/runner/work/wiki/wiki/org/20201227164302&#45;f.org</title>
<g id="a_node24"><a xlink:href="org-protocol://roam-file?file=%2Fhome%2Frunner%2Fwork%2Fwiki%2Fwiki%2Forg%2F20201227164302-f.org" xlink:title="fsharp">
<polygon fill="#eeeeee" stroke="transparent" points="1257.5,-108 1195.5,-108 1195.5,-72 1257.5,-72 1257.5,-108"/>
<polyline fill="none" stroke="#c9c9c9" points="1195.5,-72 1257.5,-72 "/>
<text text-anchor="middle" x="1226.5" y="-86.3" font-family="Times,serif" font-size="14.00" fill="#111111">fsharp</text>
</a>
</g>
</g>
<!-- /home/runner/work/wiki/wiki/org/20201227172614&#45;ocaml.org&#45;&gt;/home/runner/work/wiki/wiki/org/20201227164302&#45;f.org -->
<g id="edge43" class="edge">
<title>/home/runner/work/wiki/wiki/org/20201227172614&#45;ocaml.org&#45;&gt;/home/runner/work/wiki/wiki/org/20201227164302&#45;f.org</title>
<path fill="none" stroke="#333333" d="M1176.06,-143.7C1184.18,-135.22 1194.09,-124.86 1202.97,-115.58"/>
<polygon fill="#333333" stroke="#333333" points="1205.74,-117.75 1210.13,-108.1 1200.69,-112.91 1205.74,-117.75"/>
</g>
<!-- /home/runner/work/wiki/wiki/org/20210107230750&#45;chez_scheme.org -->
<g id="node4" class="node">
<title>/home/runner/work/wiki/wiki/org/20210107230750&#45;chez_scheme.org</title>
<g id="a_node4"><a xlink:href="org-protocol://roam-file?file=%2Fhome%2Frunner%2Fwork%2Fwiki%2Fwiki%2Forg%2F20210107230750-chez_scheme.org" xlink:title="Chez Scheme">
<polygon fill="#eeeeee" stroke="transparent" points="428,-180 315,-180 315,-144 428,-144 428,-180"/>
<polyline fill="none" stroke="#c9c9c9" points="315,-144 428,-144 "/>
<text text-anchor="middle" x="371.5" y="-158.3" font-family="Times,serif" font-size="14.00" fill="#111111">Chez Scheme</text>
</a>
</g>
</g>
<!-- /home/runner/work/wiki/wiki/org/20210107224917&#45;texmacs.org -->
<g id="node9" class="node">
<title>/home/runner/work/wiki/wiki/org/20210107224917&#45;texmacs.org</title>
<g id="a_node9"><a xlink:href="org-protocol://roam-file?file=%2Fhome%2Frunner%2Fwork%2Fwiki%2Fwiki%2Forg%2F20210107224917-texmacs.org" xlink:title="TeXmacs">
<polygon fill="#eeeeee" stroke="transparent" points="288.5,-108 208.5,-108 208.5,-72 288.5,-72 288.5,-108"/>
<polyline fill="none" stroke="#c9c9c9" points="208.5,-72 288.5,-72 "/>
<text text-anchor="middle" x="248.5" y="-86.3" font-family="Times,serif" font-size="14.00" fill="#111111">TeXmacs</text>
</a>
</g>
</g>
<!-- /home/runner/work/wiki/wiki/org/20210107230750&#45;chez_scheme.org&#45;&gt;/home/runner/work/wiki/wiki/org/20210107224917&#45;texmacs.org -->
<g id="edge13" class="edge">
<title>/home/runner/work/wiki/wiki/org/20210107230750&#45;chez_scheme.org&#45;&gt;/home/runner/work/wiki/wiki/org/20210107224917&#45;texmacs.org</title>
<path fill="none" stroke="#333333" d="M341.41,-143.88C325.18,-134.64 304.96,-123.13 287.53,-113.21"/>
<polygon fill="#333333" stroke="#333333" points="289.13,-110.09 278.7,-108.19 285.66,-116.18 289.13,-110.09"/>
</g>
<!-- /home/runner/work/wiki/wiki/org/20210115165243&#45;paredit.org -->
<g id="node5" class="node">
<title>/home/runner/work/wiki/wiki/org/20210115165243&#45;paredit.org</title>
<g id="a_node5"><a xlink:href="org-protocol://roam-file?file=%2Fhome%2Frunner%2Fwork%2Fwiki%2Fwiki%2Forg%2F20210115165243-paredit.org" xlink:title="Paredit">
<polygon fill="#eeeeee" stroke="transparent" points="612.5,-108 544.5,-108 544.5,-72 612.5,-72 612.5,-108"/>
<polyline fill="none" stroke="#c9c9c9" points="544.5,-72 612.5,-72 "/>
<text text-anchor="middle" x="578.5" y="-86.3" font-family="Times,serif" font-size="14.00" fill="#111111">Paredit</text>
</a>
</g>
</g>
<!-- /home/runner/work/wiki/wiki/org/20201226211105&#45;scheme.org -->
<g id="node16" class="node">
<title>/home/runner/work/wiki/wiki/org/20201226211105&#45;scheme.org</title>
<g id="a_node16"><a xlink:href="org-protocol://roam-file?file=%2Fhome%2Frunner%2Fwork%2Fwiki%2Fwiki%2Forg%2F20201226211105-scheme.org" xlink:title="Scheme">
<polygon fill="#eeeeee" stroke="transparent" points="554,-324 481,-324 481,-288 554,-288 554,-324"/>
<polyline fill="none" stroke="#c9c9c9" points="481,-288 554,-288 "/>
<text text-anchor="middle" x="517.5" y="-302.3" font-family="Times,serif" font-size="14.00" fill="#111111">Scheme</text>
</a>
</g>
</g>
<!-- /home/runner/work/wiki/wiki/org/20201227163827&#45;net.org&#45;&gt;/home/runner/work/wiki/wiki/org/20201226211105&#45;scheme.org -->
<g id="edge24" class="edge">
<title>/home/runner/work/wiki/wiki/org/20201227163827&#45;net.org&#45;&gt;/home/runner/work/wiki/wiki/org/20201226211105&#45;scheme.org</title>
<path fill="none" stroke="#333333" d="M1272.92,-180.07C1268.79,-200.88 1258.54,-235.32 1234.5,-252 1179.6,-290.08 714.98,-301.54 564.4,-304.27"/>
<polygon fill="#333333" stroke="#333333" points="564.05,-300.77 554.11,-304.45 564.17,-307.77 564.05,-300.77"/>
</g>
<!-- /home/runner/work/wiki/wiki/org/20201227163827&#45;net.org&#45;&gt;/home/runner/work/wiki/wiki/org/20201227163941&#45;c.org -->
<g id="edge42" class="edge">
<title>/home/runner/work/wiki/wiki/org/20201227163827&#45;net.org&#45;&gt;/home/runner/work/wiki/wiki/org/20201227163941&#45;c.org</title>
<path fill="none" stroke="#333333" d="M1292.15,-180.1C1298.03,-188.13 1304.38,-197.87 1309.59,-206.8"/>
<polygon fill="#333333" stroke="#333333" points="1306.62,-208.66 1314.54,-215.7 1312.73,-205.26 1306.62,-208.66"/>
</g>
<!-- /home/runner/work/wiki/wiki/org/20201227163827&#45;net.org&#45;&gt;/home/runner/work/wiki/wiki/org/20201227164302&#45;f.org -->
<g id="edge44" class="edge">
<title>/home/runner/work/wiki/wiki/org/20201227163827&#45;net.org&#45;&gt;/home/runner/work/wiki/wiki/org/20201227164302&#45;f.org</title>
<path fill="none" stroke="#333333" d="M1257.47,-143.7C1250.94,-135.56 1243.82,-125.69 1237.96,-116.7"/>
<polygon fill="#333333" stroke="#333333" points="1240.85,-114.73 1232.58,-108.1 1234.92,-118.44 1240.85,-114.73"/>
</g>
<!-- /home/runner/work/wiki/wiki/org/20201227150000&#45;essentials_of_programming_languages.org&#45;&gt;/home/runner/work/wiki/wiki/org/20201226211105&#45;scheme.org -->
<g id="edge23" class="edge">
<title>/home/runner/work/wiki/wiki/org/20201227150000&#45;essentials_of_programming_languages.org&#45;&gt;/home/runner/work/wiki/wiki/org/20201226211105&#45;scheme.org</title>
<path fill="none" stroke="#333333" d="M517.5,-359.7C517.5,-351.98 517.5,-342.71 517.5,-334.11"/>
<polygon fill="#333333" stroke="#333333" points="521,-334.1 517.5,-324.1 514,-334.1 521,-334.1"/>
</g>
<!-- /home/runner/work/wiki/wiki/org/20201225161440&#45;common_lisp.org -->
<g id="node8" class="node">
<title>/home/runner/work/wiki/wiki/org/20201225161440&#45;common_lisp.org</title>
<g id="a_node8"><a xlink:href="org-protocol://roam-file?file=%2Fhome%2Frunner%2Fwork%2Fwiki%2Fwiki%2Forg%2F20201225161440-common_lisp.org" xlink:title="Common Lisp">
<polygon fill="#eeeeee" stroke="transparent" points="878.5,-180 764.5,-180 764.5,-144 878.5,-144 878.5,-180"/>
<polyline fill="none" stroke="#c9c9c9" points="764.5,-144 878.5,-144 "/>
<text text-anchor="middle" x="821.5" y="-158.3" font-family="Times,serif" font-size="14.00" fill="#111111">Common Lisp</text>
</a>
</g>
</g>
<!-- /home/runner/work/wiki/wiki/org/20201225161334&#45;lisp.org -->
<g id="node20" class="node">
<title>/home/runner/work/wiki/wiki/org/20201225161334&#45;lisp.org</title>
<g id="a_node20"><a xlink:href="org-protocol://roam-file?file=%2Fhome%2Frunner%2Fwork%2Fwiki%2Fwiki%2Forg%2F20201225161334-lisp.org" xlink:title="Lisp">
<polygon fill="#eeeeee" stroke="transparent" points="605.5,-252 551.5,-252 551.5,-216 605.5,-216 605.5,-252"/>
<polyline fill="none" stroke="#c9c9c9" points="551.5,-216 605.5,-216 "/>
<text text-anchor="middle" x="578.5" y="-230.3" font-family="Times,serif" font-size="14.00" fill="#111111">Lisp</text>
</a>
</g>
</g>
<!-- /home/runner/work/wiki/wiki/org/20201225161440&#45;common_lisp.org&#45;&gt;/home/runner/work/wiki/wiki/org/20201225161334&#45;lisp.org -->
<g id="edge37" class="edge">
<title>/home/runner/work/wiki/wiki/org/20201225161440&#45;common_lisp.org&#45;&gt;/home/runner/work/wiki/wiki/org/20201225161334&#45;lisp.org</title>
<path fill="none" stroke="#333333" d="M768.23,-180.04C721.88,-193.81 656.05,-212.67 615.3,-223.77"/>
<polygon fill="#333333" stroke="#333333" points="614.25,-220.43 605.51,-226.41 616.07,-227.18 614.25,-220.43"/>
</g>
<!-- /home/runner/work/wiki/wiki/org/20201227160533&#45;c.org -->
<g id="node10" class="node">
<title>/home/runner/work/wiki/wiki/org/20201227160533&#45;c.org</title>
<g id="a_node10"><a xlink:href="org-protocol://roam-file?file=%2Fhome%2Frunner%2Fwork%2Fwiki%2Fwiki%2Forg%2F20201227160533-c.org" xlink:title="C">
<polygon fill="#eeeeee" stroke="transparent" points="1070.5,-252 1016.5,-252 1016.5,-216 1070.5,-216 1070.5,-252"/>
<polyline fill="none" stroke="#c9c9c9" points="1016.5,-216 1070.5,-216 "/>
<text text-anchor="middle" x="1043.5" y="-230.3" font-family="Times,serif" font-size="14.00" fill="#111111">C</text>
</a>
</g>
</g>
<!-- /home/runner/work/wiki/wiki/org/20201227155936&#45;cpp.org -->
<g id="node15" class="node">
<title>/home/runner/work/wiki/wiki/org/20201227155936&#45;cpp.org</title>
<g id="a_node15"><a xlink:href="org-protocol://roam-file?file=%2Fhome%2Frunner%2Fwork%2Fwiki%2Fwiki%2Forg%2F20201227155936-cpp.org" xlink:title="cpp">
<polygon fill="#eeeeee" stroke="transparent" points="1032.5,-180 978.5,-180 978.5,-144 1032.5,-144 1032.5,-180"/>
<polyline fill="none" stroke="#c9c9c9" points="978.5,-144 1032.5,-144 "/>
<text text-anchor="middle" x="1005.5" y="-158.3" font-family="Times,serif" font-size="14.00" fill="#111111">cpp</text>
</a>
</g>
</g>
<!-- /home/runner/work/wiki/wiki/org/20201227160533&#45;c.org&#45;&gt;/home/runner/work/wiki/wiki/org/20201227155936&#45;cpp.org -->
<g id="edge22" class="edge">
<title>/home/runner/work/wiki/wiki/org/20201227160533&#45;c.org&#45;&gt;/home/runner/work/wiki/wiki/org/20201227155936&#45;cpp.org</title>
<path fill="none" stroke="#333333" d="M1034.11,-215.7C1029.74,-207.64 1024.44,-197.89 1019.6,-188.98"/>
<polygon fill="#333333" stroke="#333333" points="1022.63,-187.22 1014.79,-180.1 1016.48,-190.56 1022.63,-187.22"/>
</g>
<!-- /home/runner/work/wiki/wiki/org/20201227155151&#45;rust.org -->
<g id="node19" class="node">
<title>/home/runner/work/wiki/wiki/org/20201227155151&#45;rust.org</title>
<g id="a_node19"><a xlink:href="org-protocol://roam-file?file=%2Fhome%2Frunner%2Fwork%2Fwiki%2Fwiki%2Forg%2F20201227155151-rust.org" xlink:title="Rust">
<polygon fill="#eeeeee" stroke="transparent" points="1032.5,-108 978.5,-108 978.5,-72 1032.5,-72 1032.5,-108"/>
<polyline fill="none" stroke="#c9c9c9" points="978.5,-72 1032.5,-72 "/>
<text text-anchor="middle" x="1005.5" y="-86.3" font-family="Times,serif" font-size="14.00" fill="#111111">Rust</text>
</a>
</g>
</g>
<!-- /home/runner/work/wiki/wiki/org/20201227160533&#45;c.org&#45;&gt;/home/runner/work/wiki/wiki/org/20201227155151&#45;rust.org -->
<g id="edge31" class="edge">
<title>/home/runner/work/wiki/wiki/org/20201227160533&#45;c.org&#45;&gt;/home/runner/work/wiki/wiki/org/20201227155151&#45;rust.org</title>
<path fill="none" stroke="#333333" d="M1045.94,-215.8C1047.89,-197.52 1049.17,-167.99 1041.5,-144 1038.38,-134.25 1032.85,-124.66 1027.05,-116.38"/>
<polygon fill="#333333" stroke="#333333" points="1029.78,-114.18 1020.99,-108.26 1024.17,-118.37 1029.78,-114.18"/>
</g>
<!-- /home/runner/work/wiki/wiki/org/20201226165028&#45;warren_abstract_machine.org -->
<g id="node11" class="node">
<title>/home/runner/work/wiki/wiki/org/20201226165028&#45;warren_abstract_machine.org</title>
<g id="a_node11"><a xlink:href="org-protocol://roam-file?file=%2Fhome%2Frunner%2Fwork%2Fwiki%2Fwiki%2Forg%2F20201226165028-warren_abstract_machine.org" xlink:title="Warren Abstract Machine">
<polygon fill="#eeeeee" stroke="transparent" points="998.5,-252 798.5,-252 798.5,-216 998.5,-216 998.5,-252"/>
<polyline fill="none" stroke="#c9c9c9" points="798.5,-216 998.5,-216 "/>
<text text-anchor="middle" x="898.5" y="-230.3" font-family="Times,serif" font-size="14.00" fill="#111111">Warren Abstract Machine</text>
</a>
</g>
</g>
<!-- /home/runner/work/wiki/wiki/org/20201226165028&#45;warren_abstract_machine.org&#45;&gt;/home/runner/work/wiki/wiki/org/20201225161440&#45;common_lisp.org -->
<g id="edge11" class="edge">
<title>/home/runner/work/wiki/wiki/org/20201226165028&#45;warren_abstract_machine.org&#45;&gt;/home/runner/work/wiki/wiki/org/20201225161440&#45;common_lisp.org</title>
<path fill="none" stroke="#333333" d="M879.47,-215.7C869.96,-207.05 858.29,-196.45 847.93,-187.03"/>
<polygon fill="#333333" stroke="#333333" points="850.07,-184.24 840.31,-180.1 845.36,-189.42 850.07,-184.24"/>
</g>
<!-- /home/runner/work/wiki/wiki/org/20201226165120&#45;prolog.org -->
<g id="node14" class="node">
<title>/home/runner/work/wiki/wiki/org/20201226165120&#45;prolog.org</title>
<g id="a_node14"><a xlink:href="org-protocol://roam-file?file=%2Fhome%2Frunner%2Fwork%2Fwiki%2Fwiki%2Forg%2F20201226165120-prolog.org" xlink:title="Prolog">
<polygon fill="#eeeeee" stroke="transparent" points="960,-180 897,-180 897,-144 960,-144 960,-180"/>
<polyline fill="none" stroke="#c9c9c9" points="897,-144 960,-144 "/>
<text text-anchor="middle" x="928.5" y="-158.3" font-family="Times,serif" font-size="14.00" fill="#111111">Prolog</text>
</a>
</g>
</g>
<!-- /home/runner/work/wiki/wiki/org/20201226165028&#45;warren_abstract_machine.org&#45;&gt;/home/runner/work/wiki/wiki/org/20201226165120&#45;prolog.org -->
<g id="edge21" class="edge">
<title>/home/runner/work/wiki/wiki/org/20201226165028&#45;warren_abstract_machine.org&#45;&gt;/home/runner/work/wiki/wiki/org/20201226165120&#45;prolog.org</title>
<path fill="none" stroke="#333333" d="M900,-215.7C902.59,-207.73 906.51,-198.1 910.68,-189.26"/>
<polygon fill="#333333" stroke="#333333" points="913.92,-190.61 915.27,-180.1 907.67,-187.48 913.92,-190.61"/>
</g>
<!-- /home/runner/work/wiki/wiki/org/20210224194144&#45;make_software.org -->
<g id="node12" class="node">
<title>/home/runner/work/wiki/wiki/org/20210224194144&#45;make_software.org</title>
<g id="a_node12"><a xlink:href="org-protocol://roam-file?file=%2Fhome%2Frunner%2Fwork%2Fwiki%2Fwiki%2Forg%2F20210224194144-make_software.org" xlink:title="Make (software)">
<polygon fill="#eeeeee" stroke="transparent" points="717,-396 584,-396 584,-360 717,-360 717,-396"/>
<polyline fill="none" stroke="#c9c9c9" points="584,-360 717,-360 "/>
<text text-anchor="middle" x="650.5" y="-374.3" font-family="Times,serif" font-size="14.00" fill="#111111">Make (software)</text>
</a>
</g>
</g>
<!-- /home/runner/work/wiki/wiki/org/20210107230700&#45;s7_scheme.org -->
<g id="node13" class="node">
<title>/home/runner/work/wiki/wiki/org/20210107230700&#45;s7_scheme.org</title>
<g id="a_node13"><a xlink:href="org-protocol://roam-file?file=%2Fhome%2Frunner%2Fwork%2Fwiki%2Fwiki%2Forg%2F20210107230700-s7_scheme.org" xlink:title="S7 (Scheme)">
<polygon fill="#eeeeee" stroke="transparent" points="107,-252 0,-252 0,-216 107,-216 107,-252"/>
<polyline fill="none" stroke="#c9c9c9" points="0,-216 107,-216 "/>
<text text-anchor="middle" x="53.5" y="-230.3" font-family="Times,serif" font-size="14.00" fill="#111111">S7 (Scheme)</text>
</a>
</g>
</g>
<!-- /home/runner/work/wiki/wiki/org/20210107230700&#45;s7_scheme.org&#45;&gt;/home/runner/work/wiki/wiki/org/20210107224917&#45;texmacs.org -->
<g id="edge14" class="edge">
<title>/home/runner/work/wiki/wiki/org/20210107230700&#45;s7_scheme.org&#45;&gt;/home/runner/work/wiki/wiki/org/20210107224917&#45;texmacs.org</title>
<path fill="none" stroke="#333333" d="M77.02,-215.87C111.87,-190.5 177.29,-142.85 216.48,-114.32"/>
<polygon fill="#333333" stroke="#333333" points="218.87,-116.91 224.9,-108.19 214.75,-111.25 218.87,-116.91"/>
</g>
<!-- /home/runner/work/wiki/wiki/org/20201226165120&#45;prolog.org&#45;&gt;/home/runner/work/wiki/wiki/org/20201226165028&#45;warren_abstract_machine.org -->
<g id="edge18" class="edge">
<title>/home/runner/work/wiki/wiki/org/20201226165120&#45;prolog.org&#45;&gt;/home/runner/work/wiki/wiki/org/20201226165028&#45;warren_abstract_machine.org</title>
<path fill="none" stroke="#333333" d="M927.06,-180.1C924.49,-188.04 920.59,-197.67 916.42,-206.51"/>
<polygon fill="#333333" stroke="#333333" points="913.17,-205.19 911.83,-215.7 919.43,-208.32 913.17,-205.19"/>
</g>
<!-- /home/runner/work/wiki/wiki/org/20201227155936&#45;cpp.org&#45;&gt;/home/runner/work/wiki/wiki/org/20201227155151&#45;rust.org -->
<g id="edge33" class="edge">
<title>/home/runner/work/wiki/wiki/org/20201227155936&#45;cpp.org&#45;&gt;/home/runner/work/wiki/wiki/org/20201227155151&#45;rust.org</title>
<path fill="none" stroke="#333333" d="M1005.5,-143.7C1005.5,-135.98 1005.5,-126.71 1005.5,-118.11"/>
<polygon fill="#333333" stroke="#333333" points="1009,-118.1 1005.5,-108.1 1002,-118.1 1009,-118.1"/>
</g>
<!-- /home/runner/work/wiki/wiki/org/20201226211105&#45;scheme.org&#45;&gt;/home/runner/work/wiki/wiki/org/20210107230750&#45;chez_scheme.org -->
<g id="edge3" class="edge">
<title>/home/runner/work/wiki/wiki/org/20201226211105&#45;scheme.org&#45;&gt;/home/runner/work/wiki/wiki/org/20210107230750&#45;chez_scheme.org</title>
<path fill="none" stroke="#333333" d="M489.35,-287.85C474.64,-278.22 456.76,-265.46 442.5,-252 422.02,-232.68 402.35,-207.31 388.93,-188.6"/>
<polygon fill="#333333" stroke="#333333" points="391.67,-186.41 383.04,-180.26 385.95,-190.45 391.67,-186.41"/>
</g>
<!-- /home/runner/work/wiki/wiki/org/20201226211105&#45;scheme.org&#45;&gt;/home/runner/work/wiki/wiki/org/20210115165243&#45;paredit.org -->
<g id="edge4" class="edge">
<title>/home/runner/work/wiki/wiki/org/20201226211105&#45;scheme.org&#45;&gt;/home/runner/work/wiki/wiki/org/20210115165243&#45;paredit.org</title>
<path fill="none" stroke="#333333" d="M504.86,-287.76C483.9,-256.84 446.92,-190.85 475.5,-144 488.4,-122.86 512.72,-109.79 534.49,-101.93"/>
<polygon fill="#333333" stroke="#333333" points="535.88,-105.15 544.26,-98.67 533.67,-98.51 535.88,-105.15"/>
</g>
<!-- /home/runner/work/wiki/wiki/org/20201226211105&#45;scheme.org&#45;&gt;/home/runner/work/wiki/wiki/org/20210107224917&#45;texmacs.org -->
<g id="edge17" class="edge">
<title>/home/runner/work/wiki/wiki/org/20201226211105&#45;scheme.org&#45;&gt;/home/runner/work/wiki/wiki/org/20210107224917&#45;texmacs.org</title>
<path fill="none" stroke="#333333" d="M480.93,-301.24C423.15,-294.55 314.52,-278.72 287.5,-252 251.64,-216.54 246.61,-154.11 247,-118.31"/>
<polygon fill="#333333" stroke="#333333" points="250.5,-118.19 247.26,-108.11 243.5,-118.01 250.5,-118.19"/>
</g>
<!-- /home/runner/work/wiki/wiki/org/20201226211105&#45;scheme.org&#45;&gt;/home/runner/work/wiki/wiki/org/20210107230700&#45;s7_scheme.org -->
<g id="edge20" class="edge">
<title>/home/runner/work/wiki/wiki/org/20201226211105&#45;scheme.org&#45;&gt;/home/runner/work/wiki/wiki/org/20210107230700&#45;s7_scheme.org</title>
<path fill="none" stroke="#333333" d="M480.92,-301.86C411.61,-295.56 256.35,-279.71 117.15,-252.2"/>
<polygon fill="#333333" stroke="#333333" points="117.65,-248.73 107.16,-250.2 116.28,-255.59 117.65,-248.73"/>
</g>
<!-- /home/runner/work/wiki/wiki/org/20210107230541&#45;chibi_scheme.org -->
<g id="node18" class="node">
<title>/home/runner/work/wiki/wiki/org/20210107230541&#45;chibi_scheme.org</title>
<g id="a_node18"><a xlink:href="org-protocol://roam-file?file=%2Fhome%2Frunner%2Fwork%2Fwiki%2Fwiki%2Forg%2F20210107230541-chibi_scheme.org" xlink:title="Chibi Scheme">
<polygon fill="#eeeeee" stroke="transparent" points="240,-252 125,-252 125,-216 240,-216 240,-252"/>
<polyline fill="none" stroke="#c9c9c9" points="125,-216 240,-216 "/>
<text text-anchor="middle" x="182.5" y="-230.3" font-family="Times,serif" font-size="14.00" fill="#111111">Chibi Scheme</text>
</a>
</g>
</g>
<!-- /home/runner/work/wiki/wiki/org/20201226211105&#45;scheme.org&#45;&gt;/home/runner/work/wiki/wiki/org/20210107230541&#45;chibi_scheme.org -->
<g id="edge29" class="edge">
<title>/home/runner/work/wiki/wiki/org/20201226211105&#45;scheme.org&#45;&gt;/home/runner/work/wiki/wiki/org/20210107230541&#45;chibi_scheme.org</title>
<path fill="none" stroke="#333333" d="M480.83,-298.01C429.93,-288.21 335.04,-269.62 254.5,-252 253.05,-251.68 251.58,-251.36 250.1,-251.03"/>
<polygon fill="#333333" stroke="#333333" points="250.76,-247.59 240.23,-248.81 249.22,-254.42 250.76,-247.59"/>
</g>
<!-- /home/runner/work/wiki/wiki/org/20201226211105&#45;scheme.org&#45;&gt;/home/runner/work/wiki/wiki/org/20201225161334&#45;lisp.org -->
<g id="edge36" class="edge">
<title>/home/runner/work/wiki/wiki/org/20201226211105&#45;scheme.org&#45;&gt;/home/runner/work/wiki/wiki/org/20201225161334&#45;lisp.org</title>
<path fill="none" stroke="#333333" d="M526.66,-287.7C533.18,-279.22 542.01,-268.86 550.6,-259.58"/>
<polygon fill="#333333" stroke="#333333" points="553.35,-261.77 557.7,-252.1 548.28,-256.95 553.35,-261.77"/>
</g>
<!-- /home/runner/work/wiki/wiki/org/20201226211554&#45;racket.org -->
<g id="node21" class="node">
<title>/home/runner/work/wiki/wiki/org/20201226211554&#45;racket.org</title>
<g id="a_node21"><a xlink:href="org-protocol://roam-file?file=%2Fhome%2Frunner%2Fwork%2Fwiki%2Fwiki%2Forg%2F20201226211554-racket.org" xlink:title="Racket">
<polygon fill="#eeeeee" stroke="transparent" points="550,-180 485,-180 485,-144 550,-144 550,-180"/>
<polyline fill="none" stroke="#c9c9c9" points="485,-144 550,-144 "/>
<text text-anchor="middle" x="517.5" y="-158.3" font-family="Times,serif" font-size="14.00" fill="#111111">Racket</text>
</a>
</g>
</g>
<!-- /home/runner/work/wiki/wiki/org/20201226211105&#45;scheme.org&#45;&gt;/home/runner/work/wiki/wiki/org/20201226211554&#45;racket.org -->
<g id="edge39" class="edge">
<title>/home/runner/work/wiki/wiki/org/20201226211105&#45;scheme.org&#45;&gt;/home/runner/work/wiki/wiki/org/20201226211554&#45;racket.org</title>
<path fill="none" stroke="#333333" d="M517.5,-287.87C517.5,-263.67 517.5,-219.21 517.5,-190.39"/>
<polygon fill="#333333" stroke="#333333" points="521,-190.19 517.5,-180.19 514,-190.19 521,-190.19"/>
</g>
<!-- /home/runner/work/wiki/wiki/org/20201226211105&#45;scheme.org&#45;&gt;/home/runner/work/wiki/wiki/org/20201227163941&#45;c.org -->
<g id="edge40" class="edge">
<title>/home/runner/work/wiki/wiki/org/20201226211105&#45;scheme.org&#45;&gt;/home/runner/work/wiki/wiki/org/20201227163941&#45;c.org</title>
<path fill="none" stroke="#333333" d="M554.11,-303.77C685.46,-299.16 1132.7,-281.59 1272.5,-252 1273.99,-251.69 1275.49,-251.33 1277,-250.95"/>
<polygon fill="#333333" stroke="#333333" points="1278.33,-254.21 1286.97,-248.07 1276.39,-247.49 1278.33,-254.21"/>
</g>
<!-- /home/runner/work/wiki/wiki/org/20210107225655&#45;gnu_guile.org -->
<g id="node26" class="node">
<title>/home/runner/work/wiki/wiki/org/20210107225655&#45;gnu_guile.org</title>
<g id="a_node26"><a xlink:href="org-protocol://roam-file?file=%2Fhome%2Frunner%2Fwork%2Fwiki%2Fwiki%2Forg%2F20210107225655-gnu_guile.org" xlink:title="GNU Guile">
<polygon fill="#eeeeee" stroke="transparent" points="390.5,-252 296.5,-252 296.5,-216 390.5,-216 390.5,-252"/>
<polyline fill="none" stroke="#c9c9c9" points="296.5,-216 390.5,-216 "/>
<text text-anchor="middle" x="343.5" y="-230.3" font-family="Times,serif" font-size="14.00" fill="#111111">GNU Guile</text>
</a>
</g>
</g>
<!-- /home/runner/work/wiki/wiki/org/20201226211105&#45;scheme.org&#45;&gt;/home/runner/work/wiki/wiki/org/20210107225655&#45;gnu_guile.org -->
<g id="edge47" class="edge">
<title>/home/runner/work/wiki/wiki/org/20201226211105&#45;scheme.org&#45;&gt;/home/runner/work/wiki/wiki/org/20210107225655&#45;gnu_guile.org</title>
<path fill="none" stroke="#333333" d="M480.6,-290.15C455.79,-280.17 422.74,-266.88 395.3,-255.84"/>
<polygon fill="#333333" stroke="#333333" points="396.44,-252.53 385.86,-252.04 393.83,-259.02 396.44,-252.53"/>
</g>
<!-- /home/runner/work/wiki/wiki/org/20210109144846&#45;emacs_lisp.org -->
<g id="node17" class="node">
<title>/home/runner/work/wiki/wiki/org/20210109144846&#45;emacs_lisp.org</title>
<g id="a_node17"><a xlink:href="org-protocol://roam-file?file=%2Fhome%2Frunner%2Fwork%2Fwiki%2Fwiki%2Forg%2F20210109144846-emacs_lisp.org" xlink:title="Elisp">
<polygon fill="#eeeeee" stroke="transparent" points="703.5,-108 649.5,-108 649.5,-72 703.5,-72 703.5,-108"/>
<polyline fill="none" stroke="#c9c9c9" points="649.5,-72 703.5,-72 "/>
<text text-anchor="middle" x="676.5" y="-86.3" font-family="Times,serif" font-size="14.00" fill="#111111">Elisp</text>
</a>
</g>
</g>
<!-- /home/runner/work/wiki/wiki/org/20210109144846&#45;emacs_lisp.org&#45;&gt;/home/runner/work/wiki/wiki/org/20201225161334&#45;lisp.org -->
<g id="edge34" class="edge">
<title>/home/runner/work/wiki/wiki/org/20210109144846&#45;emacs_lisp.org&#45;&gt;/home/runner/work/wiki/wiki/org/20201225161334&#45;lisp.org</title>
<path fill="none" stroke="#333333" d="M662.43,-108.37C654.33,-118.58 644.08,-131.83 635.5,-144 620.83,-164.82 605.31,-189.22 594.17,-207.21"/>
<polygon fill="#333333" stroke="#333333" points="591.04,-205.62 588.78,-215.98 597,-209.29 591.04,-205.62"/>
</g>
<!-- /home/runner/work/wiki/wiki/org/20210109144507&#45;emacs.org -->
<g id="node25" class="node">
<title>/home/runner/work/wiki/wiki/org/20210109144507&#45;emacs.org</title>
<g id="a_node25"><a xlink:href="org-protocol://roam-file?file=%2Fhome%2Frunner%2Fwork%2Fwiki%2Fwiki%2Forg%2F20210109144507-emacs.org" xlink:title="Emacs">
<polygon fill="#eeeeee" stroke="transparent" points="708.5,-180 644.5,-180 644.5,-144 708.5,-144 708.5,-180"/>
<polyline fill="none" stroke="#c9c9c9" points="644.5,-144 708.5,-144 "/>
<text text-anchor="middle" x="676.5" y="-158.3" font-family="Times,serif" font-size="14.00" fill="#111111">Emacs</text>
</a>
</g>
</g>
<!-- /home/runner/work/wiki/wiki/org/20210109144846&#45;emacs_lisp.org&#45;&gt;/home/runner/work/wiki/wiki/org/20210109144507&#45;emacs.org -->
<g id="edge45" class="edge">
<title>/home/runner/work/wiki/wiki/org/20210109144846&#45;emacs_lisp.org&#45;&gt;/home/runner/work/wiki/wiki/org/20210109144507&#45;emacs.org</title>
<path fill="none" stroke="#333333" d="M682.4,-108.1C683.2,-115.79 683.44,-125.05 683.1,-133.67"/>
<polygon fill="#333333" stroke="#333333" points="679.61,-133.48 682.42,-143.7 686.59,-133.96 679.61,-133.48"/>
</g>
<!-- /home/runner/work/wiki/wiki/org/20210107230541&#45;chibi_scheme.org&#45;&gt;/home/runner/work/wiki/wiki/org/20210107224917&#45;texmacs.org -->
<g id="edge15" class="edge">
<title>/home/runner/work/wiki/wiki/org/20210107230541&#45;chibi_scheme.org&#45;&gt;/home/runner/work/wiki/wiki/org/20210107224917&#45;texmacs.org</title>
<path fill="none" stroke="#333333" d="M190.46,-215.87C201.86,-191.35 222.92,-146.03 236.3,-117.26"/>
<polygon fill="#333333" stroke="#333333" points="239.47,-118.73 240.51,-108.19 233.12,-115.78 239.47,-118.73"/>
</g>
<!-- /home/runner/work/wiki/wiki/org/20201227155151&#45;rust.org&#45;&gt;/home/runner/work/wiki/wiki/org/20201226211105&#45;scheme.org -->
<g id="edge26" class="edge">
<title>/home/runner/work/wiki/wiki/org/20201227155151&#45;rust.org&#45;&gt;/home/runner/work/wiki/wiki/org/20201226211105&#45;scheme.org</title>
<path fill="none" stroke="#333333" d="M1024.78,-108.21C1058.07,-139.95 1119.15,-208.43 1079.5,-252 1045.09,-289.8 693.49,-301.19 564.56,-304.11"/>
<polygon fill="#333333" stroke="#333333" points="564.15,-300.62 554.23,-304.34 564.3,-307.62 564.15,-300.62"/>
</g>
<!-- /home/runner/work/wiki/wiki/org/20201225161334&#45;lisp.org&#45;&gt;/home/runner/work/wiki/wiki/org/20210107230750&#45;chez_scheme.org -->
<g id="edge2" class="edge">
<title>/home/runner/work/wiki/wiki/org/20201225161334&#45;lisp.org&#45;&gt;/home/runner/work/wiki/wiki/org/20210107230750&#45;chez_scheme.org</title>
<path fill="none" stroke="#333333" d="M551.44,-223.85C521.17,-213.61 471.19,-196.71 431.57,-183.31"/>
<polygon fill="#333333" stroke="#333333" points="432.6,-179.97 422,-180.08 430.35,-186.6 432.6,-179.97"/>
</g>
<!-- /home/runner/work/wiki/wiki/org/20201225161334&#45;lisp.org&#45;&gt;/home/runner/work/wiki/wiki/org/20210115165243&#45;paredit.org -->
<g id="edge5" class="edge">
<title>/home/runner/work/wiki/wiki/org/20201225161334&#45;lisp.org&#45;&gt;/home/runner/work/wiki/wiki/org/20210115165243&#45;paredit.org</title>
<path fill="none" stroke="#333333" d="M578.5,-215.87C578.5,-191.67 578.5,-147.21 578.5,-118.39"/>
<polygon fill="#333333" stroke="#333333" points="582,-118.19 578.5,-108.19 575,-118.19 582,-118.19"/>
</g>
<!-- /home/runner/work/wiki/wiki/org/20201225161334&#45;lisp.org&#45;&gt;/home/runner/work/wiki/wiki/org/20201225161440&#45;common_lisp.org -->
<g id="edge12" class="edge">
<title>/home/runner/work/wiki/wiki/org/20201225161334&#45;lisp.org&#45;&gt;/home/runner/work/wiki/wiki/org/20201225161440&#45;common_lisp.org</title>
<path fill="none" stroke="#333333" d="M605.54,-223.85C641.26,-212.93 705.1,-194.42 754.18,-180.68"/>
<polygon fill="#333333" stroke="#333333" points="755.41,-183.97 764.1,-177.91 753.53,-177.22 755.41,-183.97"/>
</g>
<!-- /home/runner/work/wiki/wiki/org/20201225161334&#45;lisp.org&#45;&gt;/home/runner/work/wiki/wiki/org/20201226211105&#45;scheme.org -->
<g id="edge27" class="edge">
<title>/home/runner/work/wiki/wiki/org/20201225161334&#45;lisp.org&#45;&gt;/home/runner/work/wiki/wiki/org/20201226211105&#45;scheme.org</title>
<path fill="none" stroke="#333333" d="M569.49,-252.1C563.01,-260.55 554.19,-270.9 545.6,-280.2"/>
<polygon fill="#333333" stroke="#333333" points="542.83,-278.03 538.49,-287.7 547.91,-282.85 542.83,-278.03"/>
</g>
<!-- /home/runner/work/wiki/wiki/org/20201225161334&#45;lisp.org&#45;&gt;/home/runner/work/wiki/wiki/org/20201227155151&#45;rust.org -->
<g id="edge30" class="edge">
<title>/home/runner/work/wiki/wiki/org/20201225161334&#45;lisp.org&#45;&gt;/home/runner/work/wiki/wiki/org/20201227155151&#45;rust.org</title>
<path fill="none" stroke="#333333" d="M605.56,-226.12C634.68,-217.96 681.64,-202.55 717.5,-180 737.19,-167.62 734.9,-154.82 755.5,-144 824.81,-107.6 917.34,-96.2 968.16,-92.63"/>
<polygon fill="#333333" stroke="#333333" points="968.59,-96.11 978.35,-91.98 968.14,-89.12 968.59,-96.11"/>
</g>
<!-- /home/runner/work/wiki/wiki/org/20201225161334&#45;lisp.org&#45;&gt;/home/runner/work/wiki/wiki/org/20201226211554&#45;racket.org -->
<g id="edge38" class="edge">
<title>/home/runner/work/wiki/wiki/org/20201225161334&#45;lisp.org&#45;&gt;/home/runner/work/wiki/wiki/org/20201226211554&#45;racket.org</title>
<path fill="none" stroke="#333333" d="M557.51,-215.7C549.41,-207.39 540.4,-197.28 532.9,-188.14"/>
<polygon fill="#333333" stroke="#333333" points="535.47,-185.75 526.51,-180.1 530,-190.11 535.47,-185.75"/>
</g>
<!-- /home/runner/work/wiki/wiki/org/20201225161334&#45;lisp.org&#45;&gt;/home/runner/work/wiki/wiki/org/20210109144507&#45;emacs.org -->
<g id="edge46" class="edge">
<title>/home/runner/work/wiki/wiki/org/20201225161334&#45;lisp.org&#45;&gt;/home/runner/work/wiki/wiki/org/20210109144507&#45;emacs.org</title>
<path fill="none" stroke="#333333" d="M602.47,-215.88C615.05,-206.89 630.63,-195.76 644.25,-186.03"/>
<polygon fill="#333333" stroke="#333333" points="646.33,-188.85 652.43,-180.19 642.26,-183.15 646.33,-188.85"/>
</g>
<!-- /home/runner/work/wiki/wiki/org/20201226211554&#45;racket.org&#45;&gt;/home/runner/work/wiki/wiki/org/20201225161334&#45;lisp.org -->
<g id="edge35" class="edge">
<title>/home/runner/work/wiki/wiki/org/20201226211554&#45;racket.org&#45;&gt;/home/runner/work/wiki/wiki/org/20201225161334&#45;lisp.org</title>
<path fill="none" stroke="#333333" d="M538.3,-180.1C546.38,-188.38 555.4,-198.49 562.92,-207.64"/>
<polygon fill="#333333" stroke="#333333" points="560.37,-210.06 569.34,-215.7 565.84,-205.69 560.37,-210.06"/>
</g>
<!-- /home/runner/work/wiki/wiki/org/20201227163941&#45;c.org&#45;&gt;/home/runner/work/wiki/wiki/org/20201227163827&#45;net.org -->
<g id="edge9" class="edge">
<title>/home/runner/work/wiki/wiki/org/20201227163941&#45;c.org&#45;&gt;/home/runner/work/wiki/wiki/org/20201227163827&#45;net.org</title>
<path fill="none" stroke="#333333" d="M1302.71,-215.7C1296.82,-207.64 1290.48,-197.89 1285.29,-188.98"/>
<polygon fill="#333333" stroke="#333333" points="1288.27,-187.15 1280.36,-180.1 1282.15,-190.55 1288.27,-187.15"/>
</g>
<!-- /home/runner/work/wiki/wiki/org/20210224193803&#45;makefile.org -->
<g id="node23" class="node">
<title>/home/runner/work/wiki/wiki/org/20210224193803&#45;makefile.org</title>
<g id="a_node23"><a xlink:href="org-protocol://roam-file?file=%2Fhome%2Frunner%2Fwork%2Fwiki%2Fwiki%2Forg%2F20210224193803-makefile.org" xlink:title="Makefile">
<polygon fill="#eeeeee" stroke="transparent" points="689,-468 612,-468 612,-432 689,-432 689,-468"/>
<polyline fill="none" stroke="#c9c9c9" points="612,-432 689,-432 "/>
<text text-anchor="middle" x="650.5" y="-446.3" font-family="Times,serif" font-size="14.00" fill="#111111">Makefile</text>
</a>
</g>
</g>
<!-- /home/runner/work/wiki/wiki/org/20210224193803&#45;makefile.org&#45;&gt;/home/runner/work/wiki/wiki/org/20210224194144&#45;make_software.org -->
<g id="edge19" class="edge">
<title>/home/runner/work/wiki/wiki/org/20210224193803&#45;makefile.org&#45;&gt;/home/runner/work/wiki/wiki/org/20210224194144&#45;make_software.org</title>
<path fill="none" stroke="#333333" d="M650.5,-431.7C650.5,-423.98 650.5,-414.71 650.5,-406.11"/>
<polygon fill="#333333" stroke="#333333" points="654,-406.1 650.5,-396.1 647,-406.1 654,-406.1"/>
</g>
<!-- /home/runner/work/wiki/wiki/org/20201227164302&#45;f.org&#45;&gt;/home/runner/work/wiki/wiki/org/20201227170020&#45;common_intermediate_language.org -->
<g id="edge1" class="edge">
<title>/home/runner/work/wiki/wiki/org/20201227164302&#45;f.org&#45;&gt;/home/runner/work/wiki/wiki/org/20201227170020&#45;common_intermediate_language.org</title>
<path fill="none" stroke="#333333" d="M1241.08,-71.7C1248.16,-63.3 1256.78,-53.07 1264.55,-43.86"/>
<polygon fill="#333333" stroke="#333333" points="1267.31,-46.01 1271.08,-36.1 1261.96,-41.49 1267.31,-46.01"/>
</g>
<!-- /home/runner/work/wiki/wiki/org/20201227164302&#45;f.org&#45;&gt;/home/runner/work/wiki/wiki/org/20201227163827&#45;net.org -->
<g id="edge8" class="edge">
<title>/home/runner/work/wiki/wiki/org/20201227164302&#45;f.org&#45;&gt;/home/runner/work/wiki/wiki/org/20201227163827&#45;net.org</title>
<path fill="none" stroke="#333333" d="M1244.37,-108.1C1250.89,-116.21 1258.01,-126.08 1263.9,-135.08"/>
<polygon fill="#333333" stroke="#333333" points="1261.03,-137.08 1269.3,-143.7 1266.96,-133.37 1261.03,-137.08"/>
</g>
<!-- /home/runner/work/wiki/wiki/org/20201227164302&#45;f.org&#45;&gt;/home/runner/work/wiki/wiki/org/20201226211105&#45;scheme.org -->
<g id="edge25" class="edge">
<title>/home/runner/work/wiki/wiki/org/20201227164302&#45;f.org&#45;&gt;/home/runner/work/wiki/wiki/org/20201226211105&#45;scheme.org</title>
<path fill="none" stroke="#333333" d="M1225.1,-108.2C1222.82,-127.28 1216.87,-158.24 1201.5,-180 1169.49,-225.32 1151.57,-232.83 1099.5,-252 1001.53,-288.07 684.98,-300.4 564.58,-303.85"/>
<polygon fill="#333333" stroke="#333333" points="564.12,-300.36 554.22,-304.13 564.32,-307.35 564.12,-300.36"/>
</g>
<!-- /home/runner/work/wiki/wiki/org/20210109144507&#45;emacs.org&#45;&gt;/home/runner/work/wiki/wiki/org/20210115165243&#45;paredit.org -->
<g id="edge6" class="edge">
<title>/home/runner/work/wiki/wiki/org/20210109144507&#45;emacs.org&#45;&gt;/home/runner/work/wiki/wiki/org/20210115165243&#45;paredit.org</title>
<path fill="none" stroke="#333333" d="M652.53,-143.88C639.95,-134.89 624.37,-123.76 610.75,-114.03"/>
<polygon fill="#333333" stroke="#333333" points="612.74,-111.15 602.57,-108.19 608.67,-116.85 612.74,-111.15"/>
</g>
<!-- /home/runner/work/wiki/wiki/org/20210109144507&#45;emacs.org&#45;&gt;/home/runner/work/wiki/wiki/org/20210109144846&#45;emacs_lisp.org -->
<g id="edge28" class="edge">
<title>/home/runner/work/wiki/wiki/org/20210109144507&#45;emacs.org&#45;&gt;/home/runner/work/wiki/wiki/org/20210109144846&#45;emacs_lisp.org</title>
<path fill="none" stroke="#333333" d="M670.58,-143.7C669.79,-135.98 669.56,-126.71 669.9,-118.11"/>
<polygon fill="#333333" stroke="#333333" points="673.4,-118.32 670.6,-108.1 666.42,-117.84 673.4,-118.32"/>
</g>
<!-- /home/runner/work/wiki/wiki/org/20210109144507&#45;emacs.org&#45;&gt;/home/runner/work/wiki/wiki/org/20201227155151&#45;rust.org -->
<g id="edge32" class="edge">
<title>/home/runner/work/wiki/wiki/org/20210109144507&#45;emacs.org&#45;&gt;/home/runner/work/wiki/wiki/org/20201227155151&#45;rust.org</title>
<path fill="none" stroke="#333333" d="M708.7,-148.32C713.29,-146.74 717.99,-145.25 722.5,-144 809,-120.1 913.36,-103.66 967.99,-95.96"/>
<polygon fill="#333333" stroke="#333333" points="968.81,-99.38 978.23,-94.54 967.84,-92.45 968.81,-99.38"/>
</g>
<!-- /home/runner/work/wiki/wiki/org/20210107225655&#45;gnu_guile.org&#45;&gt;/home/runner/work/wiki/wiki/org/20210107224917&#45;texmacs.org -->
<g id="edge16" class="edge">
<title>/home/runner/work/wiki/wiki/org/20210107225655&#45;gnu_guile.org&#45;&gt;/home/runner/work/wiki/wiki/org/20210107224917&#45;texmacs.org</title>
<path fill="none" stroke="#333333" d="M330.95,-215.97C323.43,-205.66 313.76,-192.18 305.5,-180 291.29,-159.05 275.85,-134.83 264.62,-116.96"/>
<polygon fill="#333333" stroke="#333333" points="267.44,-114.86 259.16,-108.24 261.5,-118.57 267.44,-114.86"/>
</g>
</g>
</svg>
